<svg width="242" height="242" viewBox="0 0 242 242" fill="none" xmlns="http://www.w3.org/2000/svg">
<g filter="url(#filter0_d_5_40)">
<circle cx="121" cy="121" r="92" fill="white"/>
</g>
<path d="M166.688 74.2932L127.088 103.747L134.413 86.3691L166.688 74.2932Z" fill="#E2761B" stroke="#E2761B" stroke-linecap="round" stroke-linejoin="round"/>
<path d="M75.2717 74.2932L114.553 104.026L107.587 86.3691L75.2717 74.2932Z" fill="#E4761B" stroke="#E4761B" stroke-linecap="round" stroke-linejoin="round"/>
<path d="M152.439 142.567L141.893 158.75L164.459 164.966L170.947 142.926L152.439 142.567Z" fill="#E4761B" stroke="#E4761B" stroke-linecap="round" stroke-linejoin="round"/>
<path d="M71.0929 142.926L77.5404 164.966L100.107 158.75L89.5604 142.567L71.0929 142.926Z" fill="#E4761B" stroke="#E4761B" stroke-linecap="round" stroke-linejoin="round"/>
<path d="M98.8331 115.225L92.5438 124.752L114.95 125.749L114.155 101.635L98.8331 115.225Z" fill="#E4761B" stroke="#E4761B" stroke-linecap="round" stroke-linejoin="round"/>
<path d="M143.127 115.225L127.607 101.357L127.088 125.749L149.456 124.752L143.127 115.225Z" fill="#E4761B" stroke="#E4761B" stroke-linecap="round" stroke-linejoin="round"/>
<path d="M100.107 158.75L113.558 152.173L101.937 143.085L100.107 158.75Z" fill="#E4761B" stroke="#E4761B" stroke-linecap="round" stroke-linejoin="round"/>
<path d="M128.401 152.173L141.893 158.75L140.023 143.085L128.401 152.173Z" fill="#E4761B" stroke="#E4761B" stroke-linecap="round" stroke-linejoin="round"/>
<path d="M141.893 158.75L128.401 152.173L129.477 160.982L129.357 164.688L141.893 158.75Z" fill="#D7C1B3" stroke="#D7C1B3" stroke-linecap="round" stroke-linejoin="round"/>
<path d="M100.107 158.75L112.643 164.688L112.563 160.982L113.558 152.173L100.107 158.75Z" fill="#D7C1B3" stroke="#D7C1B3" stroke-linecap="round" stroke-linejoin="round"/>
<path d="M112.841 137.267L101.618 133.959L109.538 130.331L112.841 137.267Z" fill="#233447" stroke="#233447" stroke-linecap="round" stroke-linejoin="round"/>
<path d="M129.118 137.267L132.422 130.331L140.382 133.959L129.118 137.267Z" fill="#233447" stroke="#233447" stroke-linecap="round" stroke-linejoin="round"/>
<path d="M100.107 158.75L102.017 142.567L89.5604 142.926L100.107 158.75Z" fill="#CD6116" stroke="#CD6116" stroke-linecap="round" stroke-linejoin="round"/>
<path d="M139.983 142.567L141.893 158.75L152.44 142.926L139.983 142.567Z" fill="#CD6116" stroke="#CD6116" stroke-linecap="round" stroke-linejoin="round"/>
<path d="M149.456 124.752L127.088 125.749L129.158 137.267L132.462 130.331L140.422 133.959L149.456 124.752Z" fill="#CD6116" stroke="#CD6116" stroke-linecap="round" stroke-linejoin="round"/>
<path d="M101.618 133.959L109.578 130.331L112.841 137.267L114.95 125.749L92.5438 124.752L101.618 133.959Z" fill="#CD6116" stroke="#CD6116" stroke-linecap="round" stroke-linejoin="round"/>
<path d="M92.5438 124.752L101.937 143.085L101.618 133.959L92.5438 124.752Z" fill="#E4751F" stroke="#E4751F" stroke-linecap="round" stroke-linejoin="round"/>
<path d="M140.422 133.959L140.023 143.085L149.456 124.752L140.422 133.959Z" fill="#E4751F" stroke="#E4751F" stroke-linecap="round" stroke-linejoin="round"/>
<path d="M114.95 125.749L112.841 137.267L115.468 150.857L116.065 132.962L114.95 125.749Z" fill="#E4751F" stroke="#E4751F" stroke-linecap="round" stroke-linejoin="round"/>
<path d="M127.088 125.749L126.015 132.922L126.491 150.857L129.158 137.267L127.088 125.749Z" fill="#E4751F" stroke="#E4751F" stroke-linecap="round" stroke-linejoin="round"/>
<path d="M129.158 137.267L126.491 150.857L128.402 152.173L140.023 143.085L140.422 133.959L129.158 137.267Z" fill="#F6851B" stroke="#F6851B" stroke-linecap="round" stroke-linejoin="round"/>
<path d="M101.618 133.959L101.937 143.085L113.558 152.173L115.469 150.857L112.841 137.267L101.618 133.959Z" fill="#F6851B" stroke="#F6851B" stroke-linecap="round" stroke-linejoin="round"/>
<path d="M129.357 164.688L129.477 160.982L128.482 160.104H113.478L112.563 160.982L112.643 164.688L100.107 158.75L104.484 162.335L113.358 168.514H128.602L137.516 162.335L141.893 158.75L129.357 164.688Z" fill="#C0AD9E" stroke="#C0AD9E" stroke-linecap="round" stroke-linejoin="round"/>
<path d="M128.402 152.173L126.491 150.857H115.468L113.558 152.173L112.563 160.982L113.478 160.104H128.482L129.477 160.982L128.402 152.173Z" fill="#161616" stroke="#161616" stroke-linecap="round" stroke-linejoin="round"/>
<path d="M168.36 105.66L171.742 89.3991L166.688 74.2932L128.401 102.75L143.127 115.225L163.941 121.323L168.558 115.943L166.568 114.509L169.752 111.6L167.285 109.687L170.468 107.254L168.36 105.66Z" fill="#763D16" stroke="#763D16" stroke-linecap="round" stroke-linejoin="round"/>
<path d="M70.2579 89.3991L73.6399 105.66L71.4914 107.254L74.6751 109.687L72.2482 111.6L75.432 114.509L73.4416 115.943L78.019 121.323L98.8332 115.225L113.558 102.75L75.2718 74.2932L70.2579 89.3991Z" fill="#763D16" stroke="#763D16" stroke-linecap="round" stroke-linejoin="round"/>
<path d="M163.941 121.323L143.127 115.225L149.456 124.752L140.023 143.085L152.44 142.926H170.947L163.941 121.323Z" fill="#F6851B" stroke="#F6851B" stroke-linecap="round" stroke-linejoin="round"/>
<path d="M98.8331 115.225L78.0189 121.323L71.0929 142.926H89.5604L101.937 143.085L92.5438 124.752L98.8331 115.225Z" fill="#F6851B" stroke="#F6851B" stroke-linecap="round" stroke-linejoin="round"/>
<path d="M127.088 125.749L128.402 102.75L134.453 86.3691H107.587L113.558 102.75L114.95 125.749L115.429 133.002L115.469 150.857H126.491L126.571 133.002L127.088 125.749Z" fill="#F6851B" stroke="#F6851B" stroke-linecap="round" stroke-linejoin="round"/>
<defs>
<filter id="filter0_d_5_40" x="0" y="0" width="242" height="242" filterUnits="userSpaceOnUse" color-interpolation-filters="sRGB">
<feFlood flood-opacity="0" result="BackgroundImageFix"/>
<feColorMatrix in="SourceAlpha" type="matrix" values="0 0 0 0 0 0 0 0 0 0 0 0 0 0 0 0 0 0 127 0" result="hardAlpha"/>
<feMorphology radius="4" operator="dilate" in="SourceAlpha" result="effect1_dropShadow_5_40"/>
<feOffset/>
<feGaussianBlur stdDeviation="12.5"/>
<feComposite in2="hardAlpha" operator="out"/>
<feColorMatrix type="matrix" values="0 0 0 0 0 0 0 0 0 0 0 0 0 0 0 0 0 0 0.1 0"/>
<feBlend mode="normal" in2="BackgroundImageFix" result="effect1_dropShadow_5_40"/>
<feBlend mode="normal" in="SourceGraphic" in2="effect1_dropShadow_5_40" result="shape"/>
</filter>
</defs>
</svg>
