<svg width="218" height="42" viewBox="0 0 218 42" fill="none" xmlns="http://www.w3.org/2000/svg">
<path d="M49 21H169" stroke="#ABAFB3" stroke-width="2" stroke-linecap="round"/>
<circle cx="21" cy="21" r="19.5" stroke="#ABAFB3" stroke-width="3"/>
<path d="M22.8531 14.9091V28H20.0853V17.5362H20.0086L17.0107 19.4155V16.9609L20.2515 14.9091H22.8531Z" fill="#ABAFB3"/>
<circle cx="197" cy="21" r="19.5" stroke="#EEB200" stroke-width="3"/>
<path d="M191.892 28V26.0057L196.552 21.6911C196.948 21.3075 197.281 20.9624 197.549 20.6555C197.822 20.3487 198.028 20.0483 198.169 19.7543C198.31 19.456 198.38 19.1342 198.38 18.7891C198.38 18.4055 198.293 18.0753 198.118 17.7983C197.943 17.517 197.705 17.3018 197.402 17.1527C197.1 16.9993 196.756 16.9226 196.373 16.9226C195.972 16.9226 195.623 17.0036 195.325 17.1655C195.026 17.3274 194.796 17.5597 194.634 17.8622C194.472 18.1648 194.391 18.5249 194.391 18.9425H191.764C191.764 18.0859 191.958 17.3423 192.346 16.7116C192.734 16.081 193.277 15.593 193.976 15.2479C194.675 14.9027 195.48 14.7301 196.392 14.7301C197.33 14.7301 198.146 14.8963 198.84 15.2287C199.539 15.5568 200.082 16.0128 200.47 16.5966C200.858 17.1804 201.052 17.8494 201.052 18.6037C201.052 19.098 200.954 19.5859 200.758 20.0675C200.566 20.549 200.223 21.0838 199.729 21.6719C199.234 22.2557 198.538 22.9567 197.639 23.7749L195.727 25.6477V25.7372H201.225V28H191.892Z" fill="#EEB200"/>
</svg>
