<svg width="79" height="76" viewBox="0 0 79 76" fill="none" xmlns="http://www.w3.org/2000/svg">
<mask id="mask0" mask-type="alpha" maskUnits="userSpaceOnUse" x="0" y="0" width="80" height="76">
<path d="M56.3354 73.3826C70.5971 68.7216 78.9126 58.4936 79 38C78.9126 17.5064 70.5971 7.27838 56.3354 2.61741C51.5126 1.04307 45.8088 -1.53341e-06 39.6207 -1.8193e-06C33.4286 -2.10537e-06 27.7247 1.04307 22.906 2.61741C8.64424 7.27837 0.328751 17.5064 0.241377 38C0.328749 58.4936 8.64424 68.7216 22.906 73.3826C27.7247 74.9569 33.4286 76 39.6207 76C45.8088 76 51.5126 74.9569 56.3354 73.3826Z" fill="#4369EE"/>
</mask>
<g mask="url(#mask0)">
<path d="M56.3354 73.3826C70.5971 68.7216 78.9126 58.4936 79 38C78.9126 17.5064 70.5971 7.27838 56.3354 2.61741C51.5126 1.04307 45.8088 -1.53341e-06 39.6207 -1.8193e-06C33.4286 -2.10537e-06 27.7247 1.04307 22.906 2.61741C8.64424 7.27837 0.328751 17.5064 0.241377 38C0.328749 58.4936 8.64424 68.7216 22.906 73.3826C27.7247 74.9569 33.4286 76 39.6207 76C45.8088 76 51.5126 74.9569 56.3354 73.3826Z" fill="#4369EE"/>
<path d="M50.3396 61.0887C66.4447 56.4277 75.8349 46.1996 75.9336 25.7061C75.8349 5.21249 66.4447 -5.01557 50.3396 -9.67654C44.8936 -11.2509 38.4525 -12.2939 31.4647 -12.2939C24.4723 -12.2939 18.0312 -11.2509 12.5897 -9.67654C-3.51537 -5.01557 -12.9056 5.21249 -13.0043 25.7061C-12.9056 46.1996 -3.51537 56.4277 12.5897 61.0886C18.0312 62.663 24.4723 63.7061 31.4647 63.7061C38.4525 63.7061 44.8936 62.663 50.3396 61.0887Z" fill="#1F47D3"/>
</g>
<path d="M33 34.5V28.5C33 25.1863 35.6863 22.5 39 22.5C42.3137 22.5 45 25.1863 45 28.5V34.5" stroke="white" stroke-width="3" stroke-linecap="round" stroke-linejoin="round"/>
<rect x="27" y="34" width="24" height="22" rx="4.5" fill="white"/>
</svg>
